<svg width="18" height="18" viewBox="0 0 18 18" fill="none" xmlns="http://www.w3.org/2000/svg">
<path d="M13.95 12.375H14.7375C14.9625 12.375 15.1875 12.15 15.1875 11.925V3.825C15.1875 3.6 14.9625 3.375 14.7375 3.375H13.95C13.725 3.375 13.5 3.6 13.5 3.825V11.925C13.5 12.15 13.725 12.375 13.95 12.375ZM7.2 12.375H7.9875C8.2125 12.375 8.4375 12.15 8.4375 11.925V4.95C8.4375 4.725 8.2125 4.5 7.9875 4.5H7.2C6.975 4.5 6.75 4.725 6.75 4.95V11.925C6.75 12.15 6.975 12.375 7.2 12.375ZM10.575 12.375H11.3625C11.5875 12.375 11.8125 12.15 11.8125 11.925V7.2C11.8125 6.975 11.5875 6.75 11.3625 6.75H10.575C10.35 6.75 10.125 6.975 10.125 7.2V11.925C10.125 12.15 10.35 12.375 10.575 12.375ZM17.4375 14.0625H1.6875V2.8125C1.6875 2.50172 1.43578 2.25 1.125 2.25H0.5625C0.251719 2.25 0 2.50172 0 2.8125V14.625C0 15.2462 0.503789 15.75 1.125 15.75H17.4375C17.7483 15.75 18 15.4983 18 15.1875V14.625C18 14.3142 17.7483 14.0625 17.4375 14.0625ZM3.825 12.375H4.6125C4.8375 12.375 5.0625 12.15 5.0625 11.925V9.45C5.0625 9.225 4.8375 9 4.6125 9H3.825C3.6 9 3.375 9.225 3.375 9.45V11.925C3.375 12.15 3.6 12.375 3.825 12.375Z" fill="white"/>
</svg>
