<svg width="12" height="11" viewBox="0 0 12 11" fill="none" xmlns="http://www.w3.org/2000/svg">
<path d="M0.612811 9.16674C0.612811 9.96001 1.30045 10.5702 2.19433 10.5702H10.3081C11.202 10.5702 11.8895 9.96001 11.8895 9.16674V4.59018H0.544067V9.16674H0.612811ZM9.34544 5.87162C9.62048 5.87162 9.89547 6.05467 9.89547 6.35978C9.89547 6.60386 9.68924 6.84796 9.34544 6.84796C9.0704 6.84796 8.79532 6.66488 8.79532 6.35978C8.86408 6.05467 9.0704 5.87162 9.34544 5.87162ZM6.25122 5.87162C6.52626 5.87162 6.80125 6.05467 6.80125 6.35978C6.80125 6.60386 6.59502 6.84796 6.25122 6.84796C5.97618 6.84796 5.7011 6.66488 5.7011 6.35978C5.76986 6.05467 5.97618 5.87162 6.25122 5.87162ZM6.25122 8.06837C6.52626 8.06837 6.80125 8.25143 6.80125 8.55653C6.80125 8.80061 6.59502 9.04471 6.25122 9.04471C5.97618 9.04471 5.7011 8.86164 5.7011 8.55653C5.76986 8.31245 5.97618 8.06837 6.25122 8.06837ZM3.157 5.87162C3.43204 5.87162 3.70703 6.05467 3.70703 6.35978C3.70703 6.60386 3.5008 6.84796 3.157 6.84796C2.88196 6.84796 2.60688 6.66488 2.60688 6.35978C2.67564 6.05467 2.88196 5.87162 3.157 5.87162ZM3.157 8.06837C3.43204 8.06837 3.70703 8.25143 3.70703 8.55653C3.70703 8.80061 3.5008 9.04471 3.157 9.04471C2.88196 9.04471 2.60688 8.86164 2.60688 8.55653C2.67564 8.31245 2.88196 8.06837 3.157 8.06837Z" fill="#428BCA"/>
<path d="M10.3081 1.41696H8.93291V0.501661C8.93291 0.25758 8.7266 0.0134888 8.3828 0.0134888C8.039 0.0134888 7.83268 0.19656 7.83268 0.501661V1.41696H4.46349V0.501661C4.46349 0.25758 4.25718 0.0134888 3.91338 0.0134888C3.56957 0.0134888 3.36326 0.19656 3.36326 0.501661V1.41696H1.98805C1.09417 1.41696 0.406616 2.02716 0.406616 2.82042V3.9798H11.7521V2.82042C11.9584 2.08818 11.202 1.41696 10.3081 1.41696Z" fill="#428BCA"/>
</svg>
