<svg width="16" height="14" viewBox="0 0 16 14" fill="none" xmlns="http://www.w3.org/2000/svg">
<path d="M7.78802 4.05408L2.66665 8.20623V12.6876C2.66665 12.8036 2.71347 12.9149 2.79682 12.997C2.88017 13.079 2.99322 13.1251 3.11109 13.1251L6.22386 13.1172C6.34135 13.1166 6.45382 13.0702 6.53669 12.9883C6.61956 12.9063 6.66608 12.7953 6.66608 12.6797V10.0626C6.66608 9.94657 6.71291 9.83529 6.79626 9.75324C6.87961 9.67119 6.99265 9.6251 7.11053 9.6251H8.8883C9.00617 9.6251 9.11922 9.67119 9.20257 9.75324C9.28592 9.83529 9.33274 9.94657 9.33274 10.0626V12.6778C9.33256 12.7353 9.34392 12.7924 9.36617 12.8456C9.38843 12.8988 9.42113 12.9472 9.46242 12.988C9.50371 13.0288 9.55277 13.0611 9.60678 13.0832C9.6608 13.1053 9.7187 13.1166 9.77718 13.1166L12.8888 13.1251C13.0067 13.1251 13.1198 13.079 13.2031 12.997C13.2865 12.9149 13.3333 12.8036 13.3333 12.6876V8.20322L8.21302 4.05408C8.15283 4.00632 8.07784 3.98027 8.00052 3.98027C7.92321 3.98027 7.84822 4.00632 7.78802 4.05408ZM15.8777 6.87623L13.5555 4.99197V1.20459C13.5555 1.11757 13.5204 1.03411 13.4579 0.97257C13.3954 0.911035 13.3106 0.876465 13.2222 0.876465H11.6666C11.5782 0.876465 11.4934 0.911035 11.4309 0.97257C11.3684 1.03411 11.3333 1.11757 11.3333 1.20459V3.19002L8.84635 1.17588C8.60769 0.982553 8.30821 0.876851 7.99913 0.876851C7.69005 0.876851 7.39058 0.982553 7.15191 1.17588L0.120544 6.87623C0.0867909 6.90369 0.0588653 6.93743 0.0383632 6.97552C0.017861 7.01361 0.00518406 7.05531 0.00105668 7.09822C-0.0030707 7.14114 0.00143238 7.18443 0.0143086 7.22563C0.0271848 7.26683 0.0481819 7.30513 0.0761 7.33834L0.784431 8.186C0.812273 8.21932 0.846519 8.24691 0.885208 8.2672C0.923897 8.28748 0.96627 8.30005 1.0099 8.30419C1.05353 8.30833 1.09756 8.30396 1.13947 8.29132C1.18139 8.27869 1.22036 8.25804 1.25415 8.23057L7.78802 2.93299C7.84822 2.88523 7.92321 2.85918 8.00052 2.85918C8.07784 2.85918 8.15283 2.88523 8.21302 2.93299L14.7472 8.23057C14.7809 8.25805 14.8198 8.27872 14.8617 8.29139C14.9035 8.30407 14.9475 8.3085 14.9911 8.30444C15.0347 8.30037 15.0771 8.2879 15.1157 8.26771C15.1544 8.24753 15.1887 8.22004 15.2166 8.18682L15.9249 7.33916C15.9528 7.30576 15.9737 7.26726 15.9865 7.22588C15.9992 7.1845 16.0035 7.14105 15.9991 7.09803C15.9947 7.05501 15.9817 7.01327 15.9609 6.97521C15.9401 6.93714 15.9118 6.90351 15.8777 6.87623Z" fill="black"/>
</svg>
