<svg width="23" height="18" viewBox="0 0 23 18" fill="none" xmlns="http://www.w3.org/2000/svg">
<path d="M1.69839 0C0.761797 0 0 0.756914 0 1.6875V3.9375C0 4.24828 0.253343 4.5 0.566129 4.5H3.39677V1.6875C3.39677 0.756914 2.63498 0 1.69839 0ZM9.05806 14.5044V12.375H19.2484V3.375C19.2484 1.51383 17.7248 0 15.8516 0H3.9484C4.30753 0.471445 4.52903 1.05187 4.52903 1.6875V14.625C4.52903 15.9915 5.75506 17.0736 7.17392 16.8441C8.28742 16.6641 9.05806 15.6255 9.05806 14.5044ZM10.1903 13.5V14.625C10.1903 16.4858 8.66673 18 6.79355 18H18.6823C20.8711 18 22.6452 16.2373 22.6452 14.0625C22.6452 13.7517 22.3918 13.5 22.079 13.5H10.1903Z" fill="white"/>
</svg>
