<svg width="25" height="23" viewBox="0 0 25 23" fill="none" xmlns="http://www.w3.org/2000/svg">
<path fill-rule="evenodd" clip-rule="evenodd" d="M6.8052 15.7639V18.4764C6.8052 19.9046 5.77884 21.2275 4.29584 21.4568C2.40616 21.7492 0.773308 20.3708 0.773308 18.63V2.14962C0.773308 1.33993 0.47831 0.60055 0 0H15.853C18.3478 0 20.377 1.92839 20.377 4.29924V15.7639H6.8052ZM2.73238 3.18462V2.5477H18.7143V3.18462H2.73238ZM2.73238 4.45847V5.0954H18.7143V4.45847H2.73238ZM2.73238 6.36925V7.00617H18.7143V6.36925H2.73238ZM2.73238 8.28002V8.91695H18.7143V8.28002H2.73238ZM2.73238 10.8277V10.1908H18.7143V10.8277H2.73238ZM2.73238 12.1016V12.7385H18.7143V12.1016H2.73238Z" fill="white"/>
<path d="M8.31318 17.197V18.63C8.31318 21.0005 6.28401 22.9293 3.78925 22.9293H19.623C22.5381 22.9293 24.9009 20.6838 24.9009 17.9135C24.9009 17.5176 24.5635 17.197 24.1469 17.197H8.31318Z" fill="white"/>
</svg>
