<svg width="21" height="18" viewBox="0 0 21 18" fill="none" xmlns="http://www.w3.org/2000/svg">
<g clip-path="url(#clip0_642_50)">
<path d="M19.32 2.25H3.92C3.18997 2.25 2.56749 2.72029 2.33632 3.375H0.84C0.376075 3.375 0 3.75275 0 4.21875V13.7812C0 14.8686 0.87752 15.75 1.96 15.75H19.32C19.7839 15.75 20.16 15.3722 20.16 14.9062V3.09375C20.16 2.62775 19.7839 2.25 19.32 2.25ZM1.68 13.7812V5.0625H2.24V13.7812C2.24 13.9363 2.11438 14.0625 1.96 14.0625C1.80562 14.0625 1.68 13.9363 1.68 13.7812ZM18.48 14.0625H3.89977C3.91286 13.9706 3.92 13.8768 3.92 13.7812V3.9375H18.48V14.0625ZM6.02 9.84375H10.78C11.0119 9.84375 11.2 9.65486 11.2 9.42188V6.04688C11.2 5.81389 11.0119 5.625 10.78 5.625H6.02C5.78805 5.625 5.6 5.81389 5.6 6.04688V9.42188C5.6 9.65486 5.78805 9.84375 6.02 9.84375ZM7 7.03125H9.8V8.4375H7V7.03125ZM5.6 11.9531V11.1094C5.6 10.8764 5.78805 10.6875 6.02 10.6875H10.78C11.0119 10.6875 11.2 10.8764 11.2 11.1094V11.9531C11.2 12.1861 11.0119 12.375 10.78 12.375H6.02C5.78805 12.375 5.6 12.1861 5.6 11.9531ZM12.32 11.9531V11.1094C12.32 10.8764 12.5081 10.6875 12.74 10.6875H16.38C16.6119 10.6875 16.8 10.8764 16.8 11.1094V11.9531C16.8 12.1861 16.6119 12.375 16.38 12.375H12.74C12.5081 12.375 12.32 12.1861 12.32 11.9531ZM12.32 6.89062V6.04688C12.32 5.81389 12.5081 5.625 12.74 5.625H16.38C16.6119 5.625 16.8 5.81389 16.8 6.04688V6.89062C16.8 7.12361 16.6119 7.3125 16.38 7.3125H12.74C12.5081 7.3125 12.32 7.12361 12.32 6.89062ZM12.32 9.42188V8.57812C12.32 8.34514 12.5081 8.15625 12.74 8.15625H16.38C16.6119 8.15625 16.8 8.34514 16.8 8.57812V9.42188C16.8 9.65486 16.6119 9.84375 16.38 9.84375H12.74C12.5081 9.84375 12.32 9.65486 12.32 9.42188Z" fill="white"/>
</g>
<defs>
<clipPath id="clip0_642_50">
<rect width="20.16" height="18" fill="white"/>
</clipPath>
</defs>
</svg>
