<svg width="32" height="25" viewBox="0 0 32 25" fill="none" xmlns="http://www.w3.org/2000/svg">
<g clip-path="url(#clip0_652_213)">
<path fill-rule="evenodd" clip-rule="evenodd" d="M13.0548 17.7974V20.6334C13.0548 22.1265 12.0285 23.5097 10.5455 23.7494C8.65579 24.0551 7.02294 22.6139 7.02294 20.794V3.56344C7.02294 2.7169 6.72794 1.94386 6.24963 1.31598H22.1027C24.5974 1.31598 26.6266 3.33214 26.6266 5.8109V17.7974H13.0548ZM8.98202 4.64555V3.97964H24.964V4.64555H8.98202ZM8.98202 5.97738V6.64329H24.964V5.97738H8.98202ZM8.98202 7.97512V8.64104H24.964V7.97512H8.98202ZM8.98202 9.97286V10.6388H24.964V9.97286H8.98202ZM8.98202 12.6365V11.9706H24.964V12.6365H8.98202ZM8.98202 13.9683V14.6343H24.964V13.9683H8.98202Z" fill="white"/>
<path d="M14.5628 19.2957V20.794C14.5628 23.2723 12.5336 25.2889 10.0389 25.2889H25.8726C28.7877 25.2889 31.1505 22.9412 31.1505 20.0448C31.1505 19.6309 30.8131 19.2957 30.3965 19.2957H14.5628Z" fill="white"/>
</g>
<defs>
<clipPath id="clip0_652_213">
<rect width="30.1595" height="23.9729" fill="white" transform="translate(0.990967 0.649902)"/>
</clipPath>
</defs>
</svg>
