<svg width="19" height="19" viewBox="0 0 19 19" fill="none" xmlns="http://www.w3.org/2000/svg">
<g clip-path="url(#clip0_440_121)">
<path d="M18.5659 16.4655L14.1239 12.0235C15.134 10.5239 15.6324 8.65024 15.3656 6.65375C14.9106 3.25788 12.1274 0.494345 8.7282 0.0639877C3.67428 -0.575518 -0.575487 3.67424 0.0640557 8.72817C0.494524 12.1289 3.25843 14.9143 6.65468 15.367C8.65116 15.6338 10.5252 15.1356 12.0244 14.1254L16.4664 18.5673C17.046 19.147 17.986 19.147 18.5657 18.5673C19.1448 17.9869 19.1448 17.0444 18.5659 16.4655ZM2.93543 7.71879C2.93543 5.09961 5.06625 2.9688 7.68543 2.9688C10.3046 2.9688 12.4354 5.09961 12.4354 7.71879C12.4354 10.338 10.3046 12.4688 7.68543 12.4688C5.06625 12.4688 2.93543 10.3387 2.93543 7.71879Z" fill="white"/>
</g>
<defs>
<clipPath id="clip0_440_121">
<rect width="19" height="19" fill="white"/>
</clipPath>
</defs>
</svg>
